<svg width="694" height="699" viewBox="0 0 694 699" fill="none" xmlns="http://www.w3.org/2000/svg">
<path d="M511.194 221.342C540.996 297.56 604.684 354.58 649.315 423.104C693.947 491.629 716.37 589.634 662.425 651.04C631.764 685.985 582.834 700.15 536.483 698.927C490.132 697.705 445.286 682.965 401.299 668.44C353.588 652.693 305.875 636.874 258.164 621.127C220.625 608.688 182.871 596.249 147.983 577.626C88.5935 545.988 37.7294 495.44 13.9451 432.38C-9.83918 369.32 -3.82146 293.678 36.7981 239.893C66.9583 199.915 112.593 174.821 147.338 138.797C181.151 103.708 204.434 58.3364 243.335 29.0716C311.894 -22.4115 422.147 -3.21325 469.357 68.4748C510.263 130.528 503.457 213.649 537.414 279.8" fill="#CDF1FD"/>
</svg>
